<svg xmlns="http://www.w3.org/2000/svg" viewBox="0 0 330.85 167.01"><defs><style>.cls-1{fill:#fff;}</style></defs><title>beer-3</title><g id="Layer_2" data-name="Layer 2"><g id="Layer_1-2" data-name="Layer 1"><path class="cls-1" d="M0,167V.23H32.13C46.39.23,56.8,4.53,63.37,12.9c6.56,7.47,9.73,19,9.73,34.17s-3.17,26.48-9.73,34.4a11.83,11.83,0,0,1-1.82,2,7.07,7.07,0,0,1,1.82,2.26c6.56,7.92,9.73,19.23,9.73,34.4s-3.17,26.7-9.73,34.17C56.58,162.71,46.17,167,32.13,167ZM21.27,21.5V72.87H32.13c4.76,0,8.38-.68,10.41-1.81s3.63-2,4.3-3.17C50,64,51.6,57.25,51.6,47.07c0-11.77-2-18.1-5.43-21.72-3.63-3.4-8.6-3.85-14-3.85Zm0,72.64v51.6H32.13c5.44,0,10.41-.45,14-4.07,3.39-3.4,5.43-9.74,5.43-21.5,0-12-2.27-18.56-5.66-22.18-3.62-3.4-8.37-3.85-13.81-3.85Z"/><path class="cls-1" d="M154.11.23V21.5H106.36V72.87h47.75V94.14H106.36v51.6h47.75V167h-69V.23Z"/><path class="cls-1" d="M238.29.23V21.5H190.54V72.87h47.75V94.14H190.54v51.6h47.75V167h-69V.23Z"/><path class="cls-1" d="M330.85,166.78h-21.5V117.45c0-14.71-7-22-21.27-22H274.72v71.28H253.45V0h34.63c28.74,0,42.31,16.52,42.31,47.52,0,15.39-3.39,27.16-9.95,35.08a5.07,5.07,0,0,0-.91,1.13,5.7,5.7,0,0,1-1.36,1.13c8.15,7.92,12.68,18.79,12.68,32.59ZM274.72,74h13.36c5.65,0,9.73-.68,12-2a27.74,27.74,0,0,0,4.07-3.16c3.4-4.3,5-11.32,5-21.28,0-11.08-1.81-17.65-5.2-21.5-3.62-3.62-8.83-4.52-15.84-4.52H274.72Z"/></g></g></svg>