<svg xmlns="http://www.w3.org/2000/svg" viewBox="0 0 330.85 166.79"><defs><style>.cls-1{fill:#fff;}</style></defs><title>beer-2</title><g id="Layer_2" data-name="Layer 2"><g id="Layer_1-2" data-name="Layer 1"><path class="cls-1" d="M61.55,83.51a11.51,11.51,0,0,1,1.82,2c6.56,7.92,9.73,19.24,9.73,34.4s-3.17,26.48-9.73,34.4c-6.79,8.37-17.2,12.45-31.24,12.45H0v-7.93H32.13c11.32,0,19.69-3.16,25.12-9.73C62.46,143,65,133.29,65,119.94c0-13.13-2.49-22.86-7.7-29.42a28.74,28.74,0,0,0-9.73-7.24C59.07,78.53,65,66.53,65,46.84,65,20.37,54.77,8.15,32.13,8.15H0V0H32.13c14,0,24.45,4.3,31.24,12.67,6.56,7.92,9.73,19.24,9.73,34.17,0,15.17-3.17,26.48-9.73,34.4ZM0,153.43V13.35H7.92V153.43ZM32.13,80.79H13.35V13.35H32.13c9.74,0,16.75,2.72,21,7.92s6.56,13.81,6.56,25.57C59.74,70.61,51.37,80.79,32.13,80.79ZM13.35,86H32.13c19.24,0,27.61,10.18,27.61,33.94,0,11.54-2.26,20.14-6.56,25.8-4.3,5.2-11.31,7.69-21,7.69H13.35Zm7.92-13.36H32.13c9.74,0,13.13-2.49,14.71-5C50,63.82,51.6,57,51.6,46.84c0-23.53-8.38-25.34-19.47-25.34H21.27Zm0,72.87H32.13c11.09,0,19.47-1.81,19.47-25.57,0-24-8.83-25.8-19.47-25.8H21.27Z"/><path class="cls-1" d="M93,158.86h61.1v7.93h-69V0h69V8.15H93V158.86ZM154.11,21.5H106.36V72.64h47.75v8.15H98.44V13.35h55.67Zm0,72.64H106.36v51.37h47.75v7.92H98.44V86h55.67Z"/><path class="cls-1" d="M177.19,158.86h61.1v7.93h-69V0h69V8.15h-61.1V158.86ZM238.29,21.5H190.54V72.64h47.75v8.15H182.62V13.35h55.67Zm0,72.64H190.54v51.37h47.75v7.92H182.62V86h55.67Z"/><path class="cls-1" d="M330.85,117.45v49.34H322.7V117.45c0-11.09-3.17-19.91-9.73-26.48a34.47,34.47,0,0,0-9.51-6.11q19-7.12,19-37.34c0-13.35-2.71-23.31-8.14-29.64-5.66-6.57-14.26-9.73-26.25-9.73H253.45V0h34.63c14.25,0,25.12,4.3,32.36,12.67,6.56,7.7,9.95,19.24,9.95,34.85,0,15.39-3.39,27.16-9.95,35.08a21.08,21.08,0,0,1-2.27,2.26C326.32,92.78,330.85,103.65,330.85,117.45Zm-69.48,49.34h-7.92V13.35h7.92Zm24-84.87H266.8V13.35h21.28c10.18,0,17.65,2.72,22.17,7.92C314.78,26.7,317,35.53,317,47.52c0,24.44-8.37,34.4-29,34.4Zm24,84.87V117.45c0-14.71-7-22-21.27-22H274.72v71.29H266.8V87.35h21.28c18.78,0,29.42,10.87,29.42,30.1v49.34ZM277.44,74h10.64c11.54,0,14.93-3.62,16.06-5.2,3.4-4.3,5-11.32,5-21.28,0-22.4-7.24-26-21-26H274.72V74Z"/></g></g></svg>