<svg xmlns="http://www.w3.org/2000/svg" viewBox="0 0 276.76 152.75"><defs><style>.cls-1{fill:#fff;}</style></defs><title>beer-4</title><g id="Layer_2" data-name="Layer 2"><g id="Layer_1-2" data-name="Layer 1"><path class="cls-1" d="M0,152.75V.23H25.12c23.31,0,33.72,13.35,33.72,39.83,0,13.12-2.72,23.08-7.92,29.64a27.08,27.08,0,0,1-8.37,6.79,25.67,25.67,0,0,1,8.37,6.56c5.2,6.57,7.92,16.52,7.92,29.88,0,26.47-10.41,39.82-33.72,39.82ZM7.24,7.24V72.87H25.12c18.78,0,26.48-9.5,26.48-32.81,0-23.54-7.47-32.82-26.48-32.82Zm0,72.64v65.86H25.12c19,0,26.48-9.28,26.48-32.81S43.9,79.88,25.12,79.88Z"/><path class="cls-1" d="M129.22.23v7H81.47V72.87h41v7h-41v65.86h47.75v7H74.45V.23Z"/><path class="cls-1" d="M197.79.23v7H150V72.87h41v7H150v65.86h47.75v7H143V.23Z"/><path class="cls-1" d="M275,152.53h-7.24V110.21c0-18.33-10.41-29-28.51-29H218.83v71.29h-7V0h31.91c24.44,0,33,12.67,33,40.51,0,13.58-2.71,23.76-8.37,30.32-2.49,2.94-7.69,5.21-11.31,7a26.41,26.41,0,0,1,7.69,5.43C271.56,89.84,275,98.67,275,110.21ZM218.83,74H239.2c20.14,0,30.55-10,30.55-33.49,0-23.76-5.89-33.27-26-33.27H218.83Z"/></g></g></svg>