<svg xmlns="http://www.w3.org/2000/svg" viewBox="0 0 304.55 85.49"><defs><style>.cls-1{fill:#fff;}</style></defs><title>logo-wh</title><g id="Layer_2" data-name="Layer 2"><g id="Layer_1-2" data-name="Layer 1"><path class="cls-1" d="M31.85,16.65V64.89H17.17V16.65H0V4.12H49V16.65Z"/><path class="cls-1" d="M46.09,28a24.66,24.66,0,0,1,8.8-5.4,30,30,0,0,1,10.26-1.81,27.57,27.57,0,0,1,9.14,1.33,13.61,13.61,0,0,1,6,4.12,17.46,17.46,0,0,1,3.39,7,41.36,41.36,0,0,1,1.08,10.09V64.89H71.93V60.34h-.26a10.51,10.51,0,0,1-4.93,4.12,17.41,17.41,0,0,1-7.17,1.46,22.24,22.24,0,0,1-5.32-.68,15.6,15.6,0,0,1-5-2.24,12.11,12.11,0,0,1-3.74-4.12A12.72,12.72,0,0,1,44,52.53a10.78,10.78,0,0,1,2.53-7.47,16.62,16.62,0,0,1,6.52-4.37A34.4,34.4,0,0,1,62,38.63a89.43,89.43,0,0,1,9.53-.52v-.69a5.23,5.23,0,0,0-2.23-4.67,9.63,9.63,0,0,0-5.49-1.5A13.65,13.65,0,0,0,58,32.53a18.62,18.62,0,0,0-4.76,3.09ZM71.93,46.27h-1.8q-2.32,0-4.68.21a19,19,0,0,0-4.2.82,7.62,7.62,0,0,0-3,1.76,4,4,0,0,0-1.2,3,3.68,3.68,0,0,0,.55,2.06A4.45,4.45,0,0,0,59,55.54a6.24,6.24,0,0,0,2,.73,11.67,11.67,0,0,0,2.15.21c2.86,0,5-.78,6.57-2.36a8.83,8.83,0,0,0,2.27-6.39Z"/><path class="cls-1" d="M142.83,43.35a27.14,27.14,0,0,1-1.37,8.58,22.11,22.11,0,0,1-4,7.25,19.78,19.78,0,0,1-6.4,5,19.05,19.05,0,0,1-8.58,1.88A18.11,18.11,0,0,1,115,64.51a13.29,13.29,0,0,1-5.49-4.34h-.17V85.49H95.28V22.15h13.39v5.23h.26a17.22,17.22,0,0,1,5.45-4.5,16.59,16.59,0,0,1,8.19-1.94A19.35,19.35,0,0,1,131,22.75a19.06,19.06,0,0,1,6.39,4.89,22.3,22.3,0,0,1,4,7.17A25.93,25.93,0,0,1,142.83,43.35Zm-13.65,0a12.93,12.93,0,0,0-.64-4,10.51,10.51,0,0,0-1.89-3.47,9.57,9.57,0,0,0-3.13-2.45,9.67,9.67,0,0,0-4.38-.94,9.46,9.46,0,0,0-4.29.94,10.28,10.28,0,0,0-3.22,2.49,11.73,11.73,0,0,0-2.79,7.55,11.49,11.49,0,0,0,.73,4A11.37,11.37,0,0,0,111.63,51a10.28,10.28,0,0,0,3.22,2.49,9.46,9.46,0,0,0,4.29.94,9.67,9.67,0,0,0,4.38-.94A9.29,9.29,0,0,0,126.65,51a10.9,10.9,0,0,0,1.89-3.57A13.26,13.26,0,0,0,129.18,43.35Z"/><path class="cls-1" d="M199.23,43.35a26.86,26.86,0,0,1-1.38,8.58,21.75,21.75,0,0,1-4,7.25,19.75,19.75,0,0,1-6.39,5,19.07,19.07,0,0,1-8.59,1.88,18,18,0,0,1-7.46-1.58,13.39,13.39,0,0,1-5.5-4.34h-.17V85.49H151.67V22.15h13.39v5.23h.26a17.33,17.33,0,0,1,5.45-4.5,16.6,16.6,0,0,1,8.2-1.94,19.31,19.31,0,0,1,8.41,1.81,19,19,0,0,1,6.4,4.89,22.28,22.28,0,0,1,4,7.17A25.94,25.94,0,0,1,199.23,43.35Zm-13.65,0a12.94,12.94,0,0,0-.65-4,10.31,10.31,0,0,0-1.88-3.47,9.46,9.46,0,0,0-7.51-3.39,9.47,9.47,0,0,0-4.3.94A10.28,10.28,0,0,0,168,35.88,11.57,11.57,0,0,0,166,39.4a11.52,11.52,0,0,0,0,8.07A11.57,11.57,0,0,0,168,51a10.28,10.28,0,0,0,3.22,2.49,9.47,9.47,0,0,0,4.3.94,9.66,9.66,0,0,0,4.37-.94A9.33,9.33,0,0,0,183.05,51a10.69,10.69,0,0,0,1.88-3.57A13.27,13.27,0,0,0,185.58,43.35Z"/><path class="cls-1" d="M250.47,44v1.72a14.05,14.05,0,0,1-.09,1.63h-31a7.4,7.4,0,0,0,1.07,3.26,9.17,9.17,0,0,0,2.32,2.54,11.36,11.36,0,0,0,6.82,2.27,11.88,11.88,0,0,0,5.67-1.24A11.28,11.28,0,0,0,239.05,51l9.79,6.18a19.82,19.82,0,0,1-7.94,6.74,26.33,26.33,0,0,1-11.46,2.36,27.36,27.36,0,0,1-9.1-1.51,22.22,22.22,0,0,1-7.51-4.37,20.34,20.34,0,0,1-5.06-7.09,23.67,23.67,0,0,1-1.85-9.61,24.06,24.06,0,0,1,1.8-9.48,21.47,21.47,0,0,1,4.9-7.21,21.79,21.79,0,0,1,7.29-4.6,25.14,25.14,0,0,1,9.1-1.63,23,23,0,0,1,8.67,1.59A19,19,0,0,1,244.46,27a21.31,21.31,0,0,1,4.42,7.3A28,28,0,0,1,250.47,44Zm-13-5.4a8.44,8.44,0,0,0-2.1-5.75q-2.11-2.42-6.31-2.41a10.63,10.63,0,0,0-3.78.65,9.32,9.32,0,0,0-3,1.76,8.54,8.54,0,0,0-2.06,2.61,7.53,7.53,0,0,0-.86,3.14Z"/><path class="cls-1" d="M291.59,64.89V59.31h-.18a13.29,13.29,0,0,1-5.87,5,20.07,20.07,0,0,1-16.7-.12,19.78,19.78,0,0,1-6.4-5,22.11,22.11,0,0,1-4-7.25,27.14,27.14,0,0,1-1.37-8.58,25.68,25.68,0,0,1,1.42-8.54,22.09,22.09,0,0,1,4-7.17,18.85,18.85,0,0,1,14.72-6.7,16.29,16.29,0,0,1,8,1.81,17.62,17.62,0,0,1,5.07,3.95h.17V0h14.08V64.89Zm-.52-21.46a11.73,11.73,0,0,0-2.79-7.55,10.28,10.28,0,0,0-3.22-2.49,9.46,9.46,0,0,0-4.29-.94,9.67,9.67,0,0,0-4.38.94,9.91,9.91,0,0,0-5.1,5.92,12.94,12.94,0,0,0-.65,4,13.27,13.27,0,0,0,.65,4.07A10.28,10.28,0,0,0,273.22,51a9.45,9.45,0,0,0,7.55,3.43,9.46,9.46,0,0,0,4.29-.94A10.28,10.28,0,0,0,288.28,51a11.37,11.37,0,0,0,2.06-3.52A11.49,11.49,0,0,0,291.07,43.43Z"/></g></g></svg>